<svg width="232" height="195" viewBox="0 0 232 195" fill="none" xmlns="http://www.w3.org/2000/svg">
<path d="M150.505 0.256836C122.618 28.1437 122.881 73.621 150.768 101.508C178.655 73.621 178.391 28.1437 150.505 0.256836Z" fill="#3D9A32"/>
<path d="M229.955 53.2553C190.517 53.3719 158.642 85.8099 158.759 125.248C198.197 125.131 230.072 92.6932 229.955 53.2553Z" fill="#3D9A32"/>
<path d="M58.6667 137.473C58.6667 138.844 58.4733 140.075 58.0866 141.165C57.735 142.254 57.1901 143.186 56.4518 143.96C55.7487 144.733 54.8697 145.331 53.815 145.752C52.7603 146.174 51.5474 146.403 50.1763 146.438L48.6997 142.483C49.7896 142.483 50.7212 142.29 51.4947 141.903C52.2681 141.481 52.8658 140.866 53.2877 140.057C53.7096 139.213 53.9205 138.176 53.9205 136.946V112.213L50.5455 112.108V107.572H58.6667V122.523V137.473Z" fill="#3D9A32"/>
<path d="M74.2111 107.572C76.2502 107.572 78.008 107.924 79.4846 108.627C80.9612 109.33 82.1038 110.367 82.9124 111.738C83.721 113.11 84.1253 114.797 84.1253 116.801C84.1253 117.856 83.9847 118.84 83.7034 119.754C83.4573 120.668 83.0706 121.494 82.5432 122.233C82.0159 122.971 81.3655 123.604 80.592 124.131C81.6116 124.588 82.5432 125.256 83.387 126.135C84.2308 126.979 84.8812 128.016 85.3382 129.246C85.8304 130.477 86.0765 131.918 86.0765 133.571C86.0765 135.786 85.637 137.719 84.7581 139.372C83.9144 140.989 82.6663 142.254 81.0139 143.168C79.3967 144.047 77.3752 144.487 74.9494 144.487H63.1368V107.572H74.2111ZM72.5764 122.707C73.9826 122.707 75.1252 122.532 76.0041 122.18C76.883 121.793 77.5334 121.196 77.9553 120.387C78.3772 119.578 78.5881 118.559 78.5881 117.328C78.5881 116.168 78.3772 115.219 77.9553 114.481C77.5334 113.742 76.883 113.215 76.0041 112.899C75.1604 112.547 74.1057 112.371 72.84 112.371H68.0411V122.707H72.5764ZM73.8947 139.952C75.0197 139.952 76.092 139.758 77.1115 139.372C78.1311 138.95 78.9573 138.264 79.5901 137.315C80.2229 136.366 80.5393 135.065 80.5393 133.413C80.5393 132.182 80.2932 131.11 79.801 130.196C79.3088 129.282 78.553 128.596 77.5334 128.139C76.5491 127.647 75.301 127.401 73.7892 127.401H68.0411V139.952H73.8947Z" fill="#3D9A32"/>
<path d="M95.3175 97.2364V103.459H101.277V108.152H95.3175V114.112H90.4131V108.152H84.4013V103.459H90.4131V97.2364H95.3175Z" fill="#3D9A32"/>
<path d="M145.389 153.889V142.114H146.644V153.779C146.644 155.329 146.429 156.535 145.998 157.396C145.568 158.258 144.909 158.885 144.023 159.279L143.968 159.187C144.46 158.842 144.817 158.258 145.039 157.433C145.272 156.621 145.389 155.44 145.389 153.889Z" fill="#3D9A32"/>
<path d="M149.526 155.034L154.491 142.114H155.635L160.6 155.034H159.253L156.964 148.98H152.774L150.873 155.034H149.526ZM154.62 143.074L152.904 148.537H156.798L154.731 143.074H154.62Z" fill="#3D9A32"/>
<path d="M162.468 154.628L162.579 153.52H162.69C163.17 153.939 163.711 154.265 164.314 154.499C164.917 154.732 165.514 154.849 166.104 154.849C166.941 154.849 167.618 154.622 168.135 154.166C168.651 153.699 168.91 153.077 168.91 152.302C168.91 151.872 168.811 151.472 168.615 151.102C168.43 150.733 168.116 150.358 167.673 149.977C167.243 149.595 166.646 149.183 165.883 148.74C165.354 148.432 164.849 148.112 164.369 147.78C163.889 147.436 163.496 147.042 163.188 146.599C162.88 146.144 162.727 145.602 162.727 144.975C162.727 144.039 163.065 143.289 163.742 142.723C164.419 142.145 165.311 141.855 166.418 141.855C166.91 141.855 167.439 141.911 168.005 142.021C168.571 142.12 169.008 142.249 169.316 142.409L169.224 143.443H169.113C168.411 142.68 167.513 142.298 166.418 142.298C165.631 142.298 164.997 142.501 164.517 142.907C164.037 143.301 163.797 143.836 163.797 144.513C163.797 145.018 163.926 145.455 164.185 145.824C164.455 146.181 164.8 146.507 165.218 146.802C165.637 147.085 166.086 147.362 166.566 147.632C167.119 147.952 167.655 148.291 168.172 148.648C168.701 149.004 169.131 149.435 169.464 149.94C169.808 150.432 169.98 151.053 169.98 151.804C169.98 152.493 169.82 153.102 169.5 153.631C169.181 154.148 168.725 154.554 168.135 154.849C167.556 155.145 166.88 155.292 166.104 155.292C165.612 155.292 165.034 155.231 164.369 155.108C163.705 154.985 163.071 154.825 162.468 154.628Z" fill="#3D9A32"/>
<path d="M173.616 155.034V142.114H174.871V148.094H182.623V142.114H183.878V155.034H182.623V148.537H174.871V155.034H173.616Z" fill="#3D9A32"/>
<path d="M191.453 155.034V149.57L186.876 142.114H188.278L192.394 148.869H192.505L195.79 142.114H197.193L192.782 149.312V155.034H191.453Z" fill="#3D9A32"/>
<path d="M200.076 142.114H201.331V154.665C201.565 154.665 201.934 154.628 202.438 154.554L205.502 154.093V155.034H200.076V142.114Z" fill="#3D9A32"/>
<path d="M121.368 184.302V165.844H125.034C126.932 165.844 128.409 166.24 129.463 167.031C130.518 167.822 131.045 168.921 131.045 170.327C131.045 171.364 130.738 172.252 130.122 172.99C129.507 173.711 128.646 174.203 127.538 174.467V174.625C129.05 174.818 130.228 175.346 131.072 176.207C131.933 177.051 132.364 178.123 132.364 179.424C132.364 180.953 131.775 182.148 130.597 183.01C129.419 183.871 127.767 184.302 125.64 184.302H121.368ZM125.06 166.477H123.161V174.388H125.034C127.811 174.388 129.2 173.069 129.2 170.432C129.2 167.796 127.82 166.477 125.06 166.477ZM125.64 175.02H123.161V183.669H125.64C128.857 183.669 130.465 182.227 130.465 179.345C130.465 176.462 128.857 175.02 125.64 175.02Z" fill="#3D9A32"/>
<path d="M136.324 175.073C136.324 173.72 136.561 172.463 137.036 171.303C137.528 170.125 138.205 169.105 139.066 168.244C139.945 167.365 140.964 166.688 142.125 166.214C143.302 165.721 144.568 165.475 145.922 165.475C147.275 165.475 148.532 165.721 149.692 166.214C150.87 166.688 151.889 167.365 152.751 168.244C153.63 169.105 154.306 170.125 154.781 171.303C155.273 172.463 155.519 173.72 155.519 175.073C155.519 176.427 155.273 177.692 154.781 178.87C154.306 180.03 153.63 181.05 152.751 181.929C151.889 182.79 150.87 183.467 149.692 183.959C148.532 184.434 147.275 184.671 145.922 184.671C144.568 184.671 143.302 184.434 142.125 183.959C140.964 183.467 139.945 182.79 139.066 181.929C138.205 181.05 137.528 180.03 137.036 178.87C136.561 177.692 136.324 176.427 136.324 175.073ZM138.328 175.073C138.328 176.866 138.644 178.439 139.277 179.793C139.91 181.129 140.797 182.175 141.94 182.931C143.083 183.669 144.41 184.038 145.922 184.038C147.433 184.038 148.76 183.669 149.903 182.931C151.046 182.175 151.933 181.12 152.566 179.767C153.199 178.413 153.515 176.849 153.515 175.073C153.515 173.298 153.199 171.742 152.566 170.406C151.933 169.053 151.046 167.998 149.903 167.242C148.76 166.486 147.433 166.108 145.922 166.108C144.41 166.108 143.083 166.486 141.94 167.242C140.815 167.98 139.927 169.026 139.277 170.38C138.644 171.716 138.328 173.28 138.328 175.073Z" fill="#3D9A32"/>
<path d="M160.653 184.302L161.312 165.475H161.629L174.891 181.507H175.05L174.469 165.844H176.262L175.603 184.671H175.287L162.024 168.639H161.866L162.446 184.302H160.653Z" fill="#3D9A32"/>
<path d="M182.466 165.844H184.259V176.972C184.259 179.099 184.777 180.76 185.814 181.955C186.869 183.133 188.346 183.722 190.244 183.722C191.44 183.722 192.477 183.493 193.356 183.036C194.252 182.561 194.938 181.911 195.412 181.085C195.904 180.259 196.133 179.309 196.098 178.237L195.65 165.844H197.443L196.994 178.237C196.924 180.347 196.291 181.946 195.096 183.036C193.918 184.126 192.231 184.671 190.033 184.671C187.66 184.671 185.806 183.985 184.47 182.614C183.134 181.226 182.466 179.327 182.466 176.919V165.844Z" fill="#3D9A32"/>
<path d="M202.158 183.722L202.317 182.14H202.475C203.16 182.737 203.934 183.203 204.795 183.537C205.656 183.871 206.509 184.038 207.353 184.038C208.548 184.038 209.515 183.713 210.253 183.062C210.991 182.394 211.361 181.507 211.361 180.399C211.361 179.784 211.22 179.213 210.939 178.685C210.675 178.158 210.227 177.622 209.594 177.077C208.979 176.532 208.126 175.943 207.036 175.31C206.28 174.871 205.56 174.414 204.874 173.939C204.189 173.447 203.626 172.885 203.187 172.252C202.747 171.601 202.527 170.828 202.527 169.931C202.527 168.596 203.011 167.523 203.978 166.715C204.945 165.888 206.219 165.475 207.801 165.475C208.504 165.475 209.26 165.554 210.069 165.713C210.877 165.853 211.501 166.038 211.941 166.266L211.809 167.743H211.651C210.649 166.653 209.365 166.108 207.801 166.108C206.676 166.108 205.771 166.398 205.085 166.978C204.4 167.541 204.057 168.305 204.057 169.272C204.057 169.993 204.241 170.617 204.611 171.144C204.997 171.654 205.489 172.12 206.087 172.542C206.685 172.946 207.326 173.342 208.012 173.728C208.803 174.185 209.568 174.669 210.306 175.179C211.062 175.688 211.677 176.304 212.152 177.024C212.644 177.727 212.89 178.615 212.89 179.687C212.89 180.672 212.661 181.542 212.204 182.298C211.747 183.036 211.097 183.616 210.253 184.038C209.427 184.46 208.46 184.671 207.353 184.671C206.65 184.671 205.823 184.583 204.874 184.407C203.925 184.231 203.02 184.003 202.158 183.722Z" fill="#3D9A32"/>
<path fill-rule="evenodd" clip-rule="evenodd" d="M152.246 127.143C152.246 127.143 125.246 86.143 117.746 75.643C110.246 65.143 93.1124 56.1666 73.7464 55.143C51.8762 53.9869 35.8189 59.7539 20.7464 75.643C-4.24881 101.992 -4.24881 142.294 20.7464 168.643C35.8189 184.532 50.8762 190.799 72.7464 189.643C92.1124 188.619 108.746 175.643 113.246 170.143C117.746 164.643 152.246 127.143 152.246 127.143ZM111.746 82.643C117.746 88.643 140.246 127.143 140.246 127.143C140.246 127.143 121.746 148.643 111.746 159.143C101.746 169.643 89.7542 177.81 72.7464 178.643C54.5637 179.533 42.1462 173.971 29.7464 160.643C9.26437 138.627 9.44729 105.828 29.7464 83.643C42.3295 69.8909 55.1258 64.2904 73.7464 65.143C90.0673 65.8902 105.746 76.643 111.746 82.643Z" fill="#3D9A32" stroke="#3D9A32"/>
</svg>
