<svg width="97" height="81" viewBox="0 0 97 81" fill="none" xmlns="http://www.w3.org/2000/svg">
<path d="M63.6865 0C51.9936 11.7951 52.1041 31.0302 63.797 42.8253C75.4899 31.0302 75.3794 11.7951 63.6865 0Z" fill="white"/>
<path d="M96.9999 22.4163C80.4637 22.4656 67.0986 36.1856 67.1474 52.8663C83.6836 52.817 97.0487 39.097 96.9999 22.4163Z" fill="white"/>
<path d="M25.1791 58.0372C25.1791 58.6171 25.098 59.1375 24.9359 59.5985C24.7885 60.0595 24.56 60.4535 24.2504 60.7807C23.9556 61.1078 23.5871 61.3606 23.1448 61.539C22.7026 61.7175 22.194 61.8141 21.6191 61.829L21 60.1561C21.457 60.1561 21.8476 60.0743 22.1719 59.9108C22.4962 59.7323 22.7468 59.4721 22.9237 59.1301C23.1006 58.7732 23.1891 58.3346 23.1891 57.8141V47.3532L21.7739 47.3085V45.3903H25.1791V51.7138V58.0372Z" fill="white"/>
<path d="M31.6968 45.3903C32.5518 45.3903 33.2889 45.539 33.908 45.8364C34.5271 46.1338 35.0062 46.5725 35.3453 47.1524C35.6843 47.7323 35.8538 48.4461 35.8538 49.2937C35.8538 49.7398 35.7949 50.1561 35.6769 50.5427C35.5738 50.9294 35.4116 51.2788 35.1905 51.5911C34.9694 51.9033 34.6967 52.171 34.3724 52.394C34.7998 52.5874 35.1905 52.8699 35.5443 53.2416C35.8981 53.5985 36.1708 54.0372 36.3624 54.5576C36.5688 55.0781 36.672 55.6877 36.672 56.3866C36.672 57.3234 36.4877 58.1413 36.1192 58.8401C35.7654 59.5242 35.2421 60.0595 34.5493 60.4461C33.8712 60.8178 33.0236 61.0037 32.0064 61.0037H27.0534V45.3903H31.6968ZM31.0114 51.7918C31.601 51.7918 32.0801 51.7175 32.4486 51.5688C32.8172 51.4052 33.0899 51.1524 33.2668 50.8104C33.4437 50.4684 33.5321 50.0372 33.5321 49.5167C33.5321 49.026 33.4437 48.6245 33.2668 48.3123C33.0899 48 32.8172 47.7769 32.4486 47.6431C32.0949 47.4944 31.6526 47.4201 31.122 47.4201H29.1098V51.7918H31.0114ZM31.5642 59.0855C32.0359 59.0855 32.4855 59.0037 32.913 58.8401C33.3405 58.6617 33.6869 58.3717 33.9522 57.9703C34.2176 57.5688 34.3503 57.0186 34.3503 56.3197C34.3503 55.7993 34.2471 55.3457 34.0407 54.9591C33.8343 54.5725 33.5174 54.2825 33.0899 54.0892C32.6771 53.881 32.1538 53.777 31.52 53.777H29.1098V59.0855H31.5642Z" fill="white"/>
<path d="M40.5467 41.0186V43.6506H43.0453V45.6357H40.5467V48.1561H38.4903V45.6357H35.9696V43.6506H38.4903V41.0186H40.5467Z" fill="white"/>
<path d="M61.5416 64.9807V60H62.0679V64.9338C62.0679 65.5896 61.9776 66.0996 61.797 66.4639C61.6164 66.8282 61.3404 67.0937 60.969 67.2602L60.9457 67.2212C61.1521 67.0755 61.3017 66.8282 61.3946 66.4796C61.4926 66.1361 61.5416 65.6364 61.5416 64.9807Z" fill="white"/>
<path d="M63.2762 65.4647L65.358 60H65.8378L67.9196 65.4647H67.3546L66.395 62.9041H64.6382L63.8411 65.4647H63.2762ZM65.4121 60.4059L64.6924 62.7167H66.3253L65.4586 60.4059H65.4121Z" fill="white"/>
<path d="M68.7028 65.2929L68.7492 64.8245H68.7957C68.9969 65.0015 69.2239 65.1394 69.4767 65.2383C69.7295 65.3372 69.9797 65.3866 70.2274 65.3866C70.5782 65.3866 70.862 65.2903 71.0787 65.0978C71.2954 64.9 71.4037 64.6372 71.4037 64.3093C71.4037 64.1271 71.3625 63.958 71.2799 63.8019C71.2025 63.6457 71.071 63.487 70.8852 63.3256C70.7046 63.1643 70.4544 62.99 70.1345 62.8026C69.9127 62.6725 69.7011 62.5372 69.4999 62.3967C69.2987 62.2509 69.1336 62.0844 69.0046 61.897C68.8756 61.7045 68.8112 61.4755 68.8112 61.21C68.8112 60.8145 68.953 60.497 69.2368 60.2576C69.5206 60.013 69.8946 59.8907 70.359 59.8907C70.5653 59.8907 70.7872 59.9141 71.0245 59.961C71.2618 60.0026 71.445 60.0572 71.574 60.1249L71.5353 60.5621H71.4889C71.1948 60.2394 70.8181 60.0781 70.359 60.0781C70.0288 60.0781 69.7631 60.1639 69.5618 60.3357C69.3606 60.5022 69.26 60.7286 69.26 61.0149C69.26 61.2282 69.3142 61.413 69.4225 61.5691C69.5361 61.7201 69.6805 61.858 69.8559 61.9829C70.0313 62.1026 70.2197 62.2197 70.4209 62.3342C70.653 62.4695 70.8775 62.6126 71.0942 62.7636C71.316 62.9145 71.4966 63.0966 71.6359 63.31C71.7804 63.5182 71.8526 63.781 71.8526 64.0985C71.8526 64.39 71.7855 64.6476 71.6514 64.8714C71.5172 65.09 71.3263 65.2617 71.0787 65.3866C70.8362 65.5115 70.5524 65.574 70.2274 65.574C70.021 65.574 69.7785 65.5479 69.4999 65.4959C69.2213 65.4439 68.9556 65.3762 68.7028 65.2929Z" fill="white"/>
<path d="M73.3769 65.4647V60H73.9032V62.5294H77.1536V60H77.6799V65.4647H77.1536V62.7167H73.9032V65.4647H73.3769Z" fill="white"/>
<path d="M80.856 65.4647V63.1539L78.9367 60H79.5249L81.2507 62.8572H81.2971L82.6747 60H83.2629L81.4132 63.0446V65.4647H80.856Z" fill="white"/>
<path d="M84.4716 60H84.9979V65.3085C85.0959 65.3085 85.2507 65.2929 85.4622 65.2617L86.7469 65.0665V65.4647H84.4716V60Z" fill="white"/>
<path d="M51.4698 77.8439V70.0372H53.0066C53.8026 70.0372 54.4217 70.2045 54.8639 70.539C55.3062 70.8736 55.5273 71.3383 55.5273 71.9331C55.5273 72.3717 55.3983 72.7472 55.1403 73.0595C54.8824 73.3643 54.5212 73.5725 54.0569 73.684V73.7509C54.6907 73.8327 55.1845 74.0558 55.5383 74.4201C55.8995 74.7769 56.0801 75.2305 56.0801 75.7807C56.0801 76.4275 55.8332 76.9331 55.3393 77.2974C54.8455 77.6617 54.1527 77.8439 53.2608 77.8439H51.4698ZM53.0176 70.3048H52.2216V73.6506H53.0066C54.1711 73.6506 54.7534 73.0929 54.7534 71.9777C54.7534 70.8624 54.1748 70.3048 53.0176 70.3048ZM53.2608 73.9182H52.2216V77.5762H53.2608C54.6097 77.5762 55.284 76.9665 55.284 75.7472C55.284 74.5279 54.6097 73.9182 53.2608 73.9182Z" fill="white"/>
<path d="M57.7405 73.9405C57.7405 73.368 57.84 72.8364 58.039 72.3457C58.2454 71.8476 58.5292 71.4164 58.8903 71.052C59.2589 70.6803 59.6863 70.394 60.1728 70.1933C60.6666 69.9851 61.1973 69.881 61.7648 69.881C62.3324 69.881 62.8594 69.9851 63.3458 70.1933C63.8396 70.394 64.2671 70.6803 64.6283 71.052C64.9968 71.4164 65.2806 71.8476 65.4796 72.3457C65.6859 72.8364 65.7891 73.368 65.7891 73.9405C65.7891 74.513 65.6859 75.0483 65.4796 75.5465C65.2806 76.0372 64.9968 76.4684 64.6283 76.8401C64.2671 77.2045 63.8396 77.4907 63.3458 77.6989C62.8594 77.8996 62.3324 78 61.7648 78C61.1973 78 60.6666 77.8996 60.1728 77.6989C59.6863 77.4907 59.2589 77.2045 58.8903 76.8401C58.5292 76.4684 58.2454 76.0372 58.039 75.5465C57.84 75.0483 57.7405 74.513 57.7405 73.9405ZM58.5808 73.9405C58.5808 74.6989 58.7134 75.3643 58.9788 75.9368C59.2441 76.5019 59.6163 76.9442 60.0954 77.2639C60.5745 77.5762 61.131 77.7323 61.7648 77.7323C62.3987 77.7323 62.9552 77.5762 63.4343 77.2639C63.9133 76.9442 64.2856 76.4981 64.5509 75.9256C64.8162 75.3532 64.9489 74.6914 64.9489 73.9405C64.9489 73.1896 64.8162 72.5316 64.5509 71.9665C64.2856 71.3941 63.9133 70.948 63.4343 70.6283C62.9552 70.3085 62.3987 70.1487 61.7648 70.1487C61.131 70.1487 60.5745 70.3085 60.0954 70.6283C59.6237 70.9405 59.2515 71.3829 58.9788 71.9554C58.7134 72.5204 58.5808 73.1822 58.5808 73.9405Z" fill="white"/>
<path d="M67.9416 77.8439L68.218 69.881H68.3507L73.9118 76.6617H73.9781L73.7349 70.0372H74.4867L74.2103 78H74.0776L68.5166 71.2193H68.4502L68.6934 77.8439H67.9416Z" fill="white"/>
<path d="M77.0877 70.0372H77.8395V74.7435C77.8395 75.6431 78.057 76.3457 78.4918 76.8513C78.934 77.3494 79.5532 77.5985 80.3492 77.5985C80.8504 77.5985 81.2852 77.5019 81.6538 77.3085C82.0297 77.1078 82.3171 76.8327 82.5161 76.4833C82.7225 76.1338 82.8183 75.7323 82.8036 75.2788L82.6156 70.0372H83.3674L83.1795 75.2788C83.15 76.171 82.8846 76.8476 82.3834 77.3085C81.8896 77.7695 81.1821 78 80.2607 78C79.2657 78 78.4881 77.71 77.928 77.1301C77.3678 76.5427 77.0877 75.7398 77.0877 74.7212V70.0372Z" fill="white"/>
<path d="M85.3448 77.5985L85.4111 76.9294H85.4774C85.7649 77.1822 86.0892 77.3792 86.4503 77.5204C86.8115 77.6617 87.169 77.7323 87.5228 77.7323C88.0239 77.7323 88.4293 77.5948 88.7389 77.3197C89.0484 77.0372 89.2032 76.6617 89.2032 76.1933C89.2032 75.9331 89.1443 75.6914 89.0263 75.4684C88.9158 75.2454 88.7278 75.0186 88.4625 74.7881C88.2045 74.5576 87.8471 74.3085 87.3901 74.0409C87.0732 73.855 86.771 73.6617 86.4835 73.461C86.1961 73.2528 85.9602 73.0149 85.7759 72.7472C85.5917 72.4721 85.4995 72.145 85.4995 71.7658C85.4995 71.2007 85.7022 70.7472 86.1076 70.4052C86.513 70.0558 87.0473 69.881 87.7107 69.881C88.0055 69.881 88.3225 69.9145 88.6615 69.9814C89.0005 70.0409 89.2622 70.119 89.4465 70.2156L89.3912 70.8401H89.3249C88.9047 70.3792 88.3667 70.1487 87.7107 70.1487C87.239 70.1487 86.8594 70.2714 86.5719 70.5167C86.2845 70.7546 86.1408 71.0781 86.1408 71.487C86.1408 71.7918 86.2182 72.0558 86.3729 72.2788C86.5351 72.4944 86.7415 72.6915 86.9921 72.8699C87.2427 73.0409 87.5117 73.2082 87.7991 73.3717C88.1308 73.5651 88.4514 73.7695 88.761 73.9851C89.0779 74.2007 89.3359 74.461 89.5349 74.7658C89.7413 75.0632 89.8445 75.4387 89.8445 75.8922C89.8445 76.3085 89.7487 76.6766 89.557 76.9963C89.3654 77.3085 89.0927 77.5539 88.7389 77.7323C88.3925 77.9108 87.9871 78 87.5228 78C87.2279 78 86.8815 77.9628 86.4835 77.8885C86.0855 77.8141 85.7059 77.7175 85.3448 77.5985Z" fill="white"/>
<path fill-rule="evenodd" clip-rule="evenodd" d="M64 53.5108C64 53.5108 52.6786 36.171 49.5338 31.7303C46.3889 27.2897 39.2044 23.4934 31.0841 23.0605C21.9137 22.5716 15.1806 25.0105 8.86058 31.7303C-1.62019 42.8741 -1.62019 59.9183 8.86058 71.062C15.1806 77.7818 21.4944 80.4322 30.6648 79.9433C38.7851 79.5104 45.76 74.0224 47.6469 71.6964C49.5338 69.3703 64 53.5108 64 53.5108ZM47.0179 34.6908C49.5338 37.2283 58.9683 53.5108 58.9683 53.5108C58.9683 53.5108 51.211 62.6036 47.0179 67.0442C42.8248 71.4849 37.7963 74.9391 30.6648 75.2912C23.0406 75.6676 17.8337 73.3155 12.6344 67.6786C4.04603 58.3675 4.12273 44.4962 12.6344 35.1137C17.9106 29.2977 23.2762 26.9291 31.0841 27.2897C37.9276 27.6057 44.502 32.1533 47.0179 34.6908Z" fill="white" stroke="white"/>
</svg>
