<svg width="40" height="40" viewBox="0 0 40 40" fill="none" xmlns="http://www.w3.org/2000/svg">
<path d="M36.6668 19.9999C36.6668 29.2049 29.2052 36.6666 20.0002 36.6666C10.7952 36.6666 3.3335 29.2049 3.3335 19.9999C3.3335 10.7949 10.7952 3.33325 20.0002 3.33325C29.2052 3.33325 36.6668 10.7949 36.6668 19.9999ZM20.5968 15.6366C18.9768 16.311 15.7374 17.7071 10.8785 19.8249C10.0885 20.1383 9.67516 20.4449 9.6385 20.7449C9.57516 21.2516 10.2102 21.4516 11.0752 21.7233L11.4385 21.8399C12.2885 22.1166 13.4352 22.4399 14.0302 22.4533C14.5702 22.4644 15.1724 22.2421 15.8368 21.7866C20.3768 18.7199 22.7202 17.1705 22.8668 17.1383C22.9718 17.1149 23.1152 17.0849 23.2118 17.1716C23.3102 17.2583 23.3002 17.4216 23.2902 17.4666C23.2268 17.7349 20.7335 20.0533 19.4435 21.2516C19.0613 21.6116 18.6818 21.9744 18.3052 22.3399C17.5152 23.1016 16.9218 23.6733 18.3385 24.6066C19.7735 25.5533 21.2218 26.4966 22.6218 27.4949C23.3118 27.9883 23.9318 28.4283 24.6985 28.3599C25.1435 28.3183 25.6035 27.8999 25.8368 26.6499C26.3902 23.6999 27.4752 17.3033 27.7252 14.6666C27.7397 14.4479 27.7302 14.2282 27.6968 14.0116C27.6771 13.8372 27.5927 13.6766 27.4602 13.5616C27.2602 13.3983 26.9518 13.3649 26.8152 13.3666C26.1885 13.3783 25.2268 13.7116 20.5985 15.6366" fill="white"/>
</svg>
