<svg width="16" height="16" viewBox="0 0 16 16" fill="none" xmlns="http://www.w3.org/2000/svg">
<path d="M8.5519 11.8449L13.8619 6.2719C13.9505 6.17891 14 6.05537 14 5.9269C14 5.79843 13.9505 5.67489 13.8619 5.5819L13.8559 5.5759C13.8129 5.53066 13.7612 5.49465 13.7039 5.47003C13.6465 5.44542 13.5848 5.43272 13.5224 5.43272C13.46 5.43272 13.3983 5.44542 13.3409 5.47003C13.2836 5.49465 13.2319 5.53066 13.1889 5.5759L8.1889 10.8239L3.1909 5.5759C3.14793 5.53066 3.0962 5.49465 3.03887 5.47003C2.98154 5.44542 2.9198 5.43272 2.8574 5.43272C2.79501 5.43272 2.73327 5.44542 2.67594 5.47003C2.6186 5.49465 2.56688 5.53066 2.5239 5.5759L2.5179 5.5819C2.42926 5.67489 2.37981 5.79843 2.37981 5.9269C2.37981 6.05537 2.42926 6.17891 2.5179 6.2719L7.8279 11.8449C7.8746 11.8939 7.93077 11.9329 7.99299 11.9596C8.05522 11.9863 8.12221 12 8.1899 12C8.2576 12 8.32459 11.9863 8.38682 11.9596C8.44904 11.9329 8.50521 11.8939 8.5519 11.8449Z" fill="white"/>
</svg>
