<svg width="14" height="12" viewBox="0 0 14 12" fill="none" xmlns="http://www.w3.org/2000/svg">
<path d="M0.22096 6.00435L5.28424 10.9403C5.37931 11.0329 5.50731 11.0841 5.64007 11.0824C5.77284 11.0807 5.8995 11.0263 5.99218 10.9312C6.08486 10.8362 6.13598 10.7082 6.13429 10.5754C6.1326 10.4426 6.07824 10.316 5.98316 10.2233L1.78369 6.13045L12.5758 5.99299C12.7084 5.9913 12.8349 5.93701 12.9275 5.84205C13.02 5.7471 13.0711 5.61926 13.0694 5.48666C13.0677 5.35407 13.0134 5.22757 12.9185 5.135C12.8235 5.04244 12.6957 4.99138 12.5631 4.99307L1.77096 5.13054L5.86482 0.932054C5.9575 0.836979 6.00862 0.70898 6.00693 0.576215C6.00523 0.44345 5.95087 0.316795 5.8558 0.224111C5.76072 0.131428 5.63272 0.0803092 5.49996 0.0820003C5.36719 0.0836913 5.24054 0.138054 5.14786 0.233129L0.211943 5.2964C0.165975 5.34344 0.129737 5.39908 0.105307 5.46014C0.0808759 5.5212 0.068732 5.58649 0.0695696 5.65225C0.0704072 5.71801 0.0842099 5.78296 0.110188 5.84338C0.136166 5.9038 0.173809 5.9585 0.22096 6.00435Z" fill="white"/>
</svg>
