<svg width="14" height="12" viewBox="0 0 14 12" fill="none" xmlns="http://www.w3.org/2000/svg">
<path d="M12.9177 6.00435L7.85444 10.9403C7.75936 11.0329 7.63136 11.0841 7.4986 11.0824C7.36583 11.0807 7.23918 11.0263 7.14649 10.9312C7.05381 10.8362 7.00269 10.7082 7.00438 10.5754C7.00607 10.4426 7.06044 10.316 7.15551 10.2233L11.355 6.13045L0.562855 5.99299C0.430257 5.9913 0.303761 5.93701 0.211195 5.84205C0.118628 5.7471 0.0675744 5.61926 0.0692633 5.48666C0.0709523 5.35407 0.125246 5.22757 0.220201 5.135C0.315155 5.04244 0.442993 4.99138 0.575591 4.99307L11.3677 5.13054L7.27386 0.932054C7.18117 0.836979 7.13005 0.70898 7.13175 0.576215C7.13344 0.44345 7.1878 0.316795 7.28287 0.224111C7.37795 0.131428 7.50595 0.0803092 7.63871 0.0820003C7.77148 0.0836913 7.89813 0.138054 7.99082 0.233129L12.9267 5.2964C12.9727 5.34344 13.0089 5.39908 13.0334 5.46014C13.0578 5.5212 13.0699 5.58649 13.0691 5.65225C13.0683 5.71801 13.0545 5.78296 13.0285 5.84338C13.0025 5.9038 12.9649 5.9585 12.9177 6.00435Z" fill="white"/>
</svg>
